<mxfile host="app.diagrams.net" agent="Mozilla/5.0 (Windows NT 10.0; Win64; x64) AppleWebKit/537.36 (KHTML, like Gecko) Chrome/136.0.0.0 Safari/537.36" version="27.0.9">
  <diagram id="R2lEEEUBdFMjLlhIrx00" name="Page-1">
    <mxGraphModel dx="1141" dy="594" grid="1" gridSize="10" guides="1" tooltips="1" connect="1" arrows="1" fold="1" page="1" pageScale="1" pageWidth="1169" pageHeight="827" math="0" shadow="0" extFonts="Permanent Marker^https://fonts.googleapis.com/css?family=Permanent+Marker">
      <root>
        <mxCell id="0" />
        <mxCell id="1" parent="0" />
        <mxCell id="bqQAZCj2C-ECfoDd7BLj-1" value="user" style="rounded=0;whiteSpace=wrap;html=1;" parent="1" vertex="1">
          <mxGeometry x="100" y="250" width="100" height="40" as="geometry" />
        </mxCell>
        <mxCell id="bqQAZCj2C-ECfoDd7BLj-4" value="Product" style="rounded=0;whiteSpace=wrap;html=1;" parent="1" vertex="1">
          <mxGeometry x="460" y="500" width="105" height="40" as="geometry" />
        </mxCell>
        <mxCell id="bqQAZCj2C-ECfoDd7BLj-5" value="Wishlist" style="rounded=0;whiteSpace=wrap;html=1;" parent="1" vertex="1">
          <mxGeometry x="460" y="250" width="100" height="40" as="geometry" />
        </mxCell>
        <mxCell id="bqQAZCj2C-ECfoDd7BLj-6" value="ProductImage" style="rounded=0;whiteSpace=wrap;html=1;" parent="1" vertex="1">
          <mxGeometry x="164.75" y="700" width="100" height="40" as="geometry" />
        </mxCell>
        <mxCell id="bqQAZCj2C-ECfoDd7BLj-8" value="Brand" style="rounded=0;whiteSpace=wrap;html=1;" parent="1" vertex="1">
          <mxGeometry x="960" y="500" width="100" height="40" as="geometry" />
        </mxCell>
        <mxCell id="bqQAZCj2C-ECfoDd7BLj-9" value="Retailer" style="rounded=0;whiteSpace=wrap;html=1;" parent="1" vertex="1">
          <mxGeometry x="950" y="725" width="100" height="40" as="geometry" />
        </mxCell>
        <mxCell id="bqQAZCj2C-ECfoDd7BLj-10" value="Price" style="rounded=0;whiteSpace=wrap;html=1;" parent="1" vertex="1">
          <mxGeometry x="465" y="725" width="100" height="40" as="geometry" />
        </mxCell>
        <mxCell id="bqQAZCj2C-ECfoDd7BLj-12" value="Review" style="rounded=0;whiteSpace=wrap;html=1;" parent="1" vertex="1">
          <mxGeometry x="60" y="570" width="100" height="40" as="geometry" />
        </mxCell>
        <mxCell id="bqQAZCj2C-ECfoDd7BLj-15" value="Has" style="rhombus;whiteSpace=wrap;html=1;" parent="1" vertex="1">
          <mxGeometry x="300" y="240" width="80" height="60" as="geometry" />
        </mxCell>
        <mxCell id="bqQAZCj2C-ECfoDd7BLj-17" value="Has" style="rhombus;whiteSpace=wrap;html=1;" parent="1" vertex="1">
          <mxGeometry x="470" y="354" width="80" height="60" as="geometry" />
        </mxCell>
        <mxCell id="bqQAZCj2C-ECfoDd7BLj-20" value="BelongsTo" style="rhombus;whiteSpace=wrap;html=1;" parent="1" vertex="1">
          <mxGeometry x="750" y="490" width="80" height="60" as="geometry" />
        </mxCell>
        <mxCell id="bqQAZCj2C-ECfoDd7BLj-21" value="Has" style="rhombus;whiteSpace=wrap;html=1;perimeterSpacing=1;" parent="1" vertex="1">
          <mxGeometry x="475" y="610" width="80" height="60" as="geometry" />
        </mxCell>
        <mxCell id="bqQAZCj2C-ECfoDd7BLj-22" value="Has" style="rhombus;whiteSpace=wrap;html=1;" parent="1" vertex="1">
          <mxGeometry x="750" y="610" width="80" height="60" as="geometry" />
        </mxCell>
        <mxCell id="bqQAZCj2C-ECfoDd7BLj-23" value="Has" style="rhombus;whiteSpace=wrap;html=1;" parent="1" vertex="1">
          <mxGeometry x="245" y="510" width="80" height="60" as="geometry" />
        </mxCell>
        <mxCell id="bqQAZCj2C-ECfoDd7BLj-24" value="Makes" style="rhombus;whiteSpace=wrap;html=1;" parent="1" vertex="1">
          <mxGeometry x="110" y="370" width="80" height="56" as="geometry" />
        </mxCell>
        <mxCell id="bqQAZCj2C-ECfoDd7BLj-37" value="" style="shape=link;html=1;rounded=0;entryX=0.5;entryY=1;entryDx=0;entryDy=0;exitX=0.5;exitY=0;exitDx=0;exitDy=0;" parent="1" source="bqQAZCj2C-ECfoDd7BLj-12" target="bqQAZCj2C-ECfoDd7BLj-24" edge="1">
          <mxGeometry relative="1" as="geometry">
            <mxPoint x="540" y="360" as="sourcePoint" />
            <mxPoint x="700" y="360" as="targetPoint" />
          </mxGeometry>
        </mxCell>
        <mxCell id="bqQAZCj2C-ECfoDd7BLj-38" value="N" style="resizable=0;html=1;whiteSpace=wrap;align=right;verticalAlign=bottom;" parent="bqQAZCj2C-ECfoDd7BLj-37" connectable="0" vertex="1">
          <mxGeometry x="1" relative="1" as="geometry">
            <mxPoint x="20" y="18" as="offset" />
          </mxGeometry>
        </mxCell>
        <mxCell id="bqQAZCj2C-ECfoDd7BLj-41" value="&lt;u&gt;id&lt;/u&gt;" style="ellipse;whiteSpace=wrap;html=1;" parent="1" vertex="1">
          <mxGeometry x="20" y="190" width="70" height="30" as="geometry" />
        </mxCell>
        <mxCell id="bqQAZCj2C-ECfoDd7BLj-42" value="FName" style="ellipse;whiteSpace=wrap;html=1;" parent="1" vertex="1">
          <mxGeometry x="10" y="265" width="70" height="30" as="geometry" />
        </mxCell>
        <mxCell id="bqQAZCj2C-ECfoDd7BLj-43" value="LName" style="ellipse;whiteSpace=wrap;html=1;" parent="1" vertex="1">
          <mxGeometry x="10" y="360" width="70" height="30" as="geometry" />
        </mxCell>
        <mxCell id="bqQAZCj2C-ECfoDd7BLj-48" style="edgeStyle=orthogonalEdgeStyle;rounded=0;orthogonalLoop=1;jettySize=auto;html=1;exitX=0;exitY=0.5;exitDx=0;exitDy=0;entryX=0.5;entryY=1;entryDx=0;entryDy=0;endArrow=none;startFill=0;" parent="1" source="bqQAZCj2C-ECfoDd7BLj-44" target="bqQAZCj2C-ECfoDd7BLj-42" edge="1">
          <mxGeometry relative="1" as="geometry" />
        </mxCell>
        <mxCell id="bqQAZCj2C-ECfoDd7BLj-49" style="edgeStyle=orthogonalEdgeStyle;rounded=0;orthogonalLoop=1;jettySize=auto;html=1;entryX=0.5;entryY=0;entryDx=0;entryDy=0;exitX=0;exitY=0.5;exitDx=0;exitDy=0;endArrow=none;startFill=0;" parent="1" source="bqQAZCj2C-ECfoDd7BLj-44" target="bqQAZCj2C-ECfoDd7BLj-43" edge="1">
          <mxGeometry relative="1" as="geometry">
            <Array as="points">
              <mxPoint x="45" y="325" />
            </Array>
          </mxGeometry>
        </mxCell>
        <mxCell id="bqQAZCj2C-ECfoDd7BLj-44" value="Name" style="ellipse;whiteSpace=wrap;html=1;" parent="1" vertex="1">
          <mxGeometry x="60" y="310" width="70" height="30" as="geometry" />
        </mxCell>
        <mxCell id="bqQAZCj2C-ECfoDd7BLj-46" value="" style="endArrow=none;html=1;rounded=0;exitX=0.5;exitY=0;exitDx=0;exitDy=0;entryX=0;entryY=1;entryDx=0;entryDy=0;" parent="1" source="bqQAZCj2C-ECfoDd7BLj-44" target="bqQAZCj2C-ECfoDd7BLj-1" edge="1">
          <mxGeometry width="50" height="50" relative="1" as="geometry">
            <mxPoint x="440" y="260" as="sourcePoint" />
            <mxPoint x="490" y="210" as="targetPoint" />
          </mxGeometry>
        </mxCell>
        <mxCell id="bqQAZCj2C-ECfoDd7BLj-47" value="" style="endArrow=none;html=1;rounded=0;entryX=1;entryY=0.5;entryDx=0;entryDy=0;exitX=0;exitY=0;exitDx=0;exitDy=0;" parent="1" source="bqQAZCj2C-ECfoDd7BLj-1" target="bqQAZCj2C-ECfoDd7BLj-41" edge="1">
          <mxGeometry width="50" height="50" relative="1" as="geometry">
            <mxPoint x="450" y="270" as="sourcePoint" />
            <mxPoint x="500" y="220" as="targetPoint" />
          </mxGeometry>
        </mxCell>
        <mxCell id="bqQAZCj2C-ECfoDd7BLj-50" value="Password" style="ellipse;whiteSpace=wrap;html=1;" parent="1" vertex="1">
          <mxGeometry x="190" y="170" width="90" height="30" as="geometry" />
        </mxCell>
        <mxCell id="bqQAZCj2C-ECfoDd7BLj-51" value="salt" style="ellipse;whiteSpace=wrap;html=1;" parent="1" vertex="1">
          <mxGeometry x="210" y="294" width="70" height="30" as="geometry" />
        </mxCell>
        <mxCell id="bqQAZCj2C-ECfoDd7BLj-54" value="" style="endArrow=none;html=1;rounded=0;exitX=1;exitY=0;exitDx=0;exitDy=0;" parent="1" source="bqQAZCj2C-ECfoDd7BLj-1" edge="1">
          <mxGeometry width="50" height="50" relative="1" as="geometry">
            <mxPoint x="440" y="260" as="sourcePoint" />
            <mxPoint x="220" y="200" as="targetPoint" />
          </mxGeometry>
        </mxCell>
        <mxCell id="bqQAZCj2C-ECfoDd7BLj-58" value="" style="endArrow=none;html=1;rounded=0;exitX=1;exitY=0.75;exitDx=0;exitDy=0;entryX=0;entryY=0;entryDx=0;entryDy=0;" parent="1" source="bqQAZCj2C-ECfoDd7BLj-1" target="bqQAZCj2C-ECfoDd7BLj-51" edge="1">
          <mxGeometry width="50" height="50" relative="1" as="geometry">
            <mxPoint x="470" y="290" as="sourcePoint" />
            <mxPoint x="520" y="240" as="targetPoint" />
          </mxGeometry>
        </mxCell>
        <mxCell id="bqQAZCj2C-ECfoDd7BLj-60" value="" style="shape=link;html=1;rounded=0;entryX=1;entryY=0.5;entryDx=0;entryDy=0;exitX=0;exitY=0.5;exitDx=0;exitDy=0;" parent="1" source="bqQAZCj2C-ECfoDd7BLj-5" target="bqQAZCj2C-ECfoDd7BLj-15" edge="1">
          <mxGeometry relative="1" as="geometry">
            <mxPoint x="160" y="510" as="sourcePoint" />
            <mxPoint x="160" y="436" as="targetPoint" />
          </mxGeometry>
        </mxCell>
        <mxCell id="bqQAZCj2C-ECfoDd7BLj-61" value="N" style="resizable=0;html=1;whiteSpace=wrap;align=right;verticalAlign=bottom;" parent="bqQAZCj2C-ECfoDd7BLj-60" connectable="0" vertex="1">
          <mxGeometry x="1" relative="1" as="geometry">
            <mxPoint x="10" y="-5" as="offset" />
          </mxGeometry>
        </mxCell>
        <mxCell id="bqQAZCj2C-ECfoDd7BLj-69" value="Added_at" style="ellipse;whiteSpace=wrap;html=1;" parent="1" vertex="1">
          <mxGeometry x="600" y="190" width="70" height="30" as="geometry" />
        </mxCell>
        <mxCell id="bqQAZCj2C-ECfoDd7BLj-72" value="" style="endArrow=none;html=1;rounded=0;entryX=0;entryY=0.5;entryDx=0;entryDy=0;exitX=1;exitY=0;exitDx=0;exitDy=0;" parent="1" source="bqQAZCj2C-ECfoDd7BLj-5" target="bqQAZCj2C-ECfoDd7BLj-69" edge="1">
          <mxGeometry width="50" height="50" relative="1" as="geometry">
            <mxPoint x="420" y="200" as="sourcePoint" />
            <mxPoint x="470" y="150" as="targetPoint" />
          </mxGeometry>
        </mxCell>
        <mxCell id="bqQAZCj2C-ECfoDd7BLj-73" value="&lt;u&gt;product_id&lt;/u&gt;" style="ellipse;whiteSpace=wrap;html=1;" parent="1" vertex="1">
          <mxGeometry x="400" y="414" width="70" height="30" as="geometry" />
        </mxCell>
        <mxCell id="bqQAZCj2C-ECfoDd7BLj-77" value="Description" style="ellipse;whiteSpace=wrap;html=1;" parent="1" vertex="1">
          <mxGeometry x="325" y="460" width="70" height="30" as="geometry" />
        </mxCell>
        <mxCell id="bqQAZCj2C-ECfoDd7BLj-79" value="Availability" style="ellipse;whiteSpace=wrap;html=1;dashed=1;" parent="1" vertex="1">
          <mxGeometry x="620" y="460" width="70" height="30" as="geometry" />
        </mxCell>
        <mxCell id="bqQAZCj2C-ECfoDd7BLj-85" value="" style="endArrow=none;html=1;rounded=0;entryX=1;entryY=1;entryDx=0;entryDy=0;exitX=0;exitY=0;exitDx=0;exitDy=0;" parent="1" source="bqQAZCj2C-ECfoDd7BLj-4" target="bqQAZCj2C-ECfoDd7BLj-73" edge="1">
          <mxGeometry width="50" height="50" relative="1" as="geometry">
            <mxPoint x="420" y="200" as="sourcePoint" />
            <mxPoint x="470" y="150" as="targetPoint" />
          </mxGeometry>
        </mxCell>
        <mxCell id="bqQAZCj2C-ECfoDd7BLj-86" value="" style="endArrow=none;html=1;rounded=0;exitX=0.967;exitY=0.762;exitDx=0;exitDy=0;entryX=0;entryY=0.25;entryDx=0;entryDy=0;exitPerimeter=0;" parent="1" source="bqQAZCj2C-ECfoDd7BLj-77" target="bqQAZCj2C-ECfoDd7BLj-4" edge="1">
          <mxGeometry width="50" height="50" relative="1" as="geometry">
            <mxPoint x="430" y="210" as="sourcePoint" />
            <mxPoint x="480" y="160" as="targetPoint" />
          </mxGeometry>
        </mxCell>
        <mxCell id="bqQAZCj2C-ECfoDd7BLj-87" value="" style="endArrow=none;html=1;rounded=0;entryX=0;entryY=1;entryDx=0;entryDy=0;exitX=1;exitY=0.5;exitDx=0;exitDy=0;" parent="1" source="bqQAZCj2C-ECfoDd7BLj-4" target="bqQAZCj2C-ECfoDd7BLj-79" edge="1">
          <mxGeometry width="50" height="50" relative="1" as="geometry">
            <mxPoint x="440" y="220" as="sourcePoint" />
            <mxPoint x="490" y="170" as="targetPoint" />
          </mxGeometry>
        </mxCell>
        <mxCell id="bqQAZCj2C-ECfoDd7BLj-92" value="image" style="rounded=0;whiteSpace=wrap;html=1;" parent="1" vertex="1">
          <mxGeometry x="169.88" y="705" width="89.75" height="30" as="geometry" />
        </mxCell>
        <mxCell id="bqQAZCj2C-ECfoDd7BLj-93" value="" style="shape=link;html=1;rounded=0;exitX=0.5;exitY=0;exitDx=0;exitDy=0;entryX=0.5;entryY=1;entryDx=0;entryDy=0;" parent="1" source="bqQAZCj2C-ECfoDd7BLj-10" target="bqQAZCj2C-ECfoDd7BLj-21" edge="1">
          <mxGeometry relative="1" as="geometry">
            <mxPoint x="518" y="506" as="sourcePoint" />
            <mxPoint x="540" y="690" as="targetPoint" />
          </mxGeometry>
        </mxCell>
        <mxCell id="bqQAZCj2C-ECfoDd7BLj-94" value="N" style="resizable=0;html=1;whiteSpace=wrap;align=right;verticalAlign=bottom;" parent="bqQAZCj2C-ECfoDd7BLj-93" connectable="0" vertex="1">
          <mxGeometry x="1" relative="1" as="geometry">
            <mxPoint x="20" y="12" as="offset" />
          </mxGeometry>
        </mxCell>
        <mxCell id="bqQAZCj2C-ECfoDd7BLj-95" value="" style="shape=link;html=1;rounded=0;entryX=0.5;entryY=0;entryDx=0;entryDy=0;exitX=0.5;exitY=1;exitDx=0;exitDy=0;" parent="1" source="bqQAZCj2C-ECfoDd7BLj-4" target="bqQAZCj2C-ECfoDd7BLj-21" edge="1">
          <mxGeometry relative="1" as="geometry">
            <mxPoint x="520" y="300" as="sourcePoint" />
            <mxPoint x="520" y="364" as="targetPoint" />
          </mxGeometry>
        </mxCell>
        <mxCell id="bqQAZCj2C-ECfoDd7BLj-96" value="1" style="resizable=0;html=1;whiteSpace=wrap;align=right;verticalAlign=bottom;" parent="bqQAZCj2C-ECfoDd7BLj-95" connectable="0" vertex="1">
          <mxGeometry x="1" relative="1" as="geometry">
            <mxPoint x="20" as="offset" />
          </mxGeometry>
        </mxCell>
        <mxCell id="bqQAZCj2C-ECfoDd7BLj-97" value="&lt;u&gt;ImageID&lt;/u&gt;" style="ellipse;whiteSpace=wrap;html=1;" parent="1" vertex="1">
          <mxGeometry x="50" y="760" width="70" height="30" as="geometry" />
        </mxCell>
        <mxCell id="bqQAZCj2C-ECfoDd7BLj-98" value="url_1" style="ellipse;whiteSpace=wrap;html=1;" parent="1" vertex="1">
          <mxGeometry x="270" y="770" width="70" height="30" as="geometry" />
        </mxCell>
        <mxCell id="bqQAZCj2C-ECfoDd7BLj-101" value="" style="endArrow=none;html=1;rounded=0;exitX=0.286;exitY=0;exitDx=0;exitDy=0;entryX=1;entryY=1;entryDx=0;entryDy=0;exitPerimeter=0;" parent="1" source="bqQAZCj2C-ECfoDd7BLj-98" target="bqQAZCj2C-ECfoDd7BLj-6" edge="1">
          <mxGeometry width="50" height="50" relative="1" as="geometry">
            <mxPoint x="310.00126265847075" y="744.3933982822018" as="sourcePoint" />
            <mxPoint x="319.75" y="630" as="targetPoint" />
          </mxGeometry>
        </mxCell>
        <mxCell id="bqQAZCj2C-ECfoDd7BLj-102" value="" style="endArrow=none;html=1;rounded=0;exitX=0;exitY=1;exitDx=0;exitDy=0;entryX=1;entryY=0;entryDx=0;entryDy=0;" parent="1" source="bqQAZCj2C-ECfoDd7BLj-6" target="bqQAZCj2C-ECfoDd7BLj-97" edge="1">
          <mxGeometry width="50" height="50" relative="1" as="geometry">
            <mxPoint x="319.75" y="754" as="sourcePoint" />
            <mxPoint x="139.75" y="755" as="targetPoint" />
          </mxGeometry>
        </mxCell>
        <mxCell id="bqQAZCj2C-ECfoDd7BLj-111" value="" style="shape=link;html=1;rounded=0;entryX=0;entryY=0.5;entryDx=0;entryDy=0;exitX=1;exitY=0.75;exitDx=0;exitDy=0;" parent="1" source="bqQAZCj2C-ECfoDd7BLj-4" target="bqQAZCj2C-ECfoDd7BLj-20" edge="1">
          <mxGeometry relative="1" as="geometry">
            <mxPoint x="519" y="509" as="sourcePoint" />
            <mxPoint x="520" y="424" as="targetPoint" />
          </mxGeometry>
        </mxCell>
        <mxCell id="bqQAZCj2C-ECfoDd7BLj-112" value="N" style="resizable=0;html=1;whiteSpace=wrap;align=right;verticalAlign=bottom;" parent="bqQAZCj2C-ECfoDd7BLj-111" connectable="0" vertex="1">
          <mxGeometry x="1" relative="1" as="geometry">
            <mxPoint as="offset" />
          </mxGeometry>
        </mxCell>
        <mxCell id="bqQAZCj2C-ECfoDd7BLj-113" value="" style="shape=link;html=1;rounded=0;entryX=1;entryY=0.5;entryDx=0;entryDy=0;exitX=0;exitY=0.5;exitDx=0;exitDy=0;width=-4;" parent="1" source="bqQAZCj2C-ECfoDd7BLj-8" target="bqQAZCj2C-ECfoDd7BLj-20" edge="1">
          <mxGeometry relative="1" as="geometry">
            <mxPoint x="520" y="300" as="sourcePoint" />
            <mxPoint x="520" y="364" as="targetPoint" />
          </mxGeometry>
        </mxCell>
        <mxCell id="bqQAZCj2C-ECfoDd7BLj-114" value="1" style="resizable=0;html=1;whiteSpace=wrap;align=right;verticalAlign=bottom;" parent="bqQAZCj2C-ECfoDd7BLj-113" connectable="0" vertex="1">
          <mxGeometry x="1" relative="1" as="geometry">
            <mxPoint x="20" as="offset" />
          </mxGeometry>
        </mxCell>
        <mxCell id="bqQAZCj2C-ECfoDd7BLj-115" value="name" style="ellipse;whiteSpace=wrap;html=1;" parent="1" vertex="1">
          <mxGeometry x="1070" y="570" width="70" height="30" as="geometry" />
        </mxCell>
        <mxCell id="bqQAZCj2C-ECfoDd7BLj-116" value="&lt;u&gt;BrandID&lt;/u&gt;" style="ellipse;whiteSpace=wrap;html=1;" parent="1" vertex="1">
          <mxGeometry x="1060" y="414" width="70" height="30" as="geometry" />
        </mxCell>
        <mxCell id="bqQAZCj2C-ECfoDd7BLj-117" value="" style="endArrow=none;html=1;rounded=0;exitX=1;exitY=0;exitDx=0;exitDy=0;entryX=0;entryY=1;entryDx=0;entryDy=0;" parent="1" source="bqQAZCj2C-ECfoDd7BLj-8" target="bqQAZCj2C-ECfoDd7BLj-116" edge="1">
          <mxGeometry width="50" height="50" relative="1" as="geometry">
            <mxPoint x="920" y="310" as="sourcePoint" />
            <mxPoint x="960" y="349" as="targetPoint" />
          </mxGeometry>
        </mxCell>
        <mxCell id="bqQAZCj2C-ECfoDd7BLj-118" value="" style="endArrow=none;html=1;rounded=0;exitX=1;exitY=1;exitDx=0;exitDy=0;entryX=0;entryY=0;entryDx=0;entryDy=0;" parent="1" source="bqQAZCj2C-ECfoDd7BLj-8" target="bqQAZCj2C-ECfoDd7BLj-115" edge="1">
          <mxGeometry width="50" height="50" relative="1" as="geometry">
            <mxPoint x="930" y="320" as="sourcePoint" />
            <mxPoint x="970" y="359" as="targetPoint" />
          </mxGeometry>
        </mxCell>
        <mxCell id="bqQAZCj2C-ECfoDd7BLj-119" value="retailer_name" style="ellipse;whiteSpace=wrap;html=1;" parent="1" vertex="1">
          <mxGeometry x="1075" y="790" width="80" height="30" as="geometry" />
        </mxCell>
        <mxCell id="bqQAZCj2C-ECfoDd7BLj-120" value="" style="endArrow=none;html=1;rounded=0;exitX=1;exitY=1;exitDx=0;exitDy=0;entryX=0;entryY=0.5;entryDx=0;entryDy=0;" parent="1" source="bqQAZCj2C-ECfoDd7BLj-9" target="bqQAZCj2C-ECfoDd7BLj-119" edge="1">
          <mxGeometry width="50" height="50" relative="1" as="geometry">
            <mxPoint x="1070" y="550" as="sourcePoint" />
            <mxPoint x="1090" y="584" as="targetPoint" />
          </mxGeometry>
        </mxCell>
        <mxCell id="bqQAZCj2C-ECfoDd7BLj-121" value="" style="endArrow=none;html=1;rounded=0;exitX=1;exitY=0;exitDx=0;exitDy=0;entryX=0;entryY=1;entryDx=0;entryDy=0;" parent="1" source="bqQAZCj2C-ECfoDd7BLj-9" target="bqQAZCj2C-ECfoDd7BLj-122" edge="1">
          <mxGeometry width="50" height="50" relative="1" as="geometry">
            <mxPoint x="1080" y="560" as="sourcePoint" />
            <mxPoint x="1100" y="594" as="targetPoint" />
          </mxGeometry>
        </mxCell>
        <mxCell id="bqQAZCj2C-ECfoDd7BLj-122" value="&lt;u&gt;retailer_id&lt;/u&gt;" style="ellipse;whiteSpace=wrap;html=1;" parent="1" vertex="1">
          <mxGeometry x="1060" y="655" width="70" height="30" as="geometry" />
        </mxCell>
        <mxCell id="bqQAZCj2C-ECfoDd7BLj-125" value="" style="shape=link;html=1;rounded=0;exitX=1;exitY=1;exitDx=0;exitDy=0;" parent="1" source="bqQAZCj2C-ECfoDd7BLj-4" target="bqQAZCj2C-ECfoDd7BLj-22" edge="1">
          <mxGeometry relative="1" as="geometry">
            <mxPoint x="575" y="540" as="sourcePoint" />
            <mxPoint x="760" y="530" as="targetPoint" />
          </mxGeometry>
        </mxCell>
        <mxCell id="bqQAZCj2C-ECfoDd7BLj-126" value="N" style="resizable=0;html=1;whiteSpace=wrap;align=right;verticalAlign=bottom;" parent="bqQAZCj2C-ECfoDd7BLj-125" connectable="0" vertex="1">
          <mxGeometry x="1" relative="1" as="geometry">
            <mxPoint x="2" y="-7" as="offset" />
          </mxGeometry>
        </mxCell>
        <mxCell id="bqQAZCj2C-ECfoDd7BLj-127" value="" style="shape=link;html=1;rounded=0;exitX=0;exitY=0.5;exitDx=0;exitDy=0;" parent="1" source="bqQAZCj2C-ECfoDd7BLj-9" target="bqQAZCj2C-ECfoDd7BLj-22" edge="1">
          <mxGeometry relative="1" as="geometry">
            <mxPoint x="585" y="550" as="sourcePoint" />
            <mxPoint x="770" y="540" as="targetPoint" />
          </mxGeometry>
        </mxCell>
        <mxCell id="bqQAZCj2C-ECfoDd7BLj-128" value="N" style="resizable=0;html=1;whiteSpace=wrap;align=right;verticalAlign=bottom;" parent="bqQAZCj2C-ECfoDd7BLj-127" connectable="0" vertex="1">
          <mxGeometry x="1" relative="1" as="geometry">
            <mxPoint x="32" y="1" as="offset" />
          </mxGeometry>
        </mxCell>
        <mxCell id="bqQAZCj2C-ECfoDd7BLj-129" value="Assigned" style="rhombus;whiteSpace=wrap;html=1;" parent="1" vertex="1">
          <mxGeometry x="280" y="600" width="80" height="60" as="geometry" />
        </mxCell>
        <mxCell id="bqQAZCj2C-ECfoDd7BLj-130" value="&lt;u&gt;PriceID&lt;/u&gt;" style="ellipse;whiteSpace=wrap;html=1;" parent="1" vertex="1">
          <mxGeometry x="370" y="690" width="70" height="30" as="geometry" />
        </mxCell>
        <mxCell id="bqQAZCj2C-ECfoDd7BLj-132" value="" style="shape=link;html=1;rounded=0;entryX=1;entryY=0;entryDx=0;entryDy=0;exitX=0;exitY=1;exitDx=0;exitDy=0;" parent="1" source="bqQAZCj2C-ECfoDd7BLj-4" target="bqQAZCj2C-ECfoDd7BLj-129" edge="1">
          <mxGeometry relative="1" as="geometry">
            <mxPoint x="525" y="550" as="sourcePoint" />
            <mxPoint x="525" y="619" as="targetPoint" />
          </mxGeometry>
        </mxCell>
        <mxCell id="bqQAZCj2C-ECfoDd7BLj-133" value="1" style="resizable=0;html=1;whiteSpace=wrap;align=right;verticalAlign=bottom;" parent="bqQAZCj2C-ECfoDd7BLj-132" connectable="0" vertex="1">
          <mxGeometry x="1" relative="1" as="geometry">
            <mxPoint x="10" y="-5" as="offset" />
          </mxGeometry>
        </mxCell>
        <mxCell id="bqQAZCj2C-ECfoDd7BLj-134" value="" style="shape=link;html=1;rounded=0;exitX=0.75;exitY=0;exitDx=0;exitDy=0;entryX=0;entryY=1;entryDx=0;entryDy=0;" parent="1" source="bqQAZCj2C-ECfoDd7BLj-6" target="bqQAZCj2C-ECfoDd7BLj-129" edge="1">
          <mxGeometry relative="1" as="geometry">
            <mxPoint x="525" y="735" as="sourcePoint" />
            <mxPoint x="525" y="681" as="targetPoint" />
          </mxGeometry>
        </mxCell>
        <mxCell id="bqQAZCj2C-ECfoDd7BLj-135" value="N" style="resizable=0;html=1;whiteSpace=wrap;align=right;verticalAlign=bottom;" parent="bqQAZCj2C-ECfoDd7BLj-134" connectable="0" vertex="1">
          <mxGeometry x="1" relative="1" as="geometry">
            <mxPoint x="-10" y="12" as="offset" />
          </mxGeometry>
        </mxCell>
        <mxCell id="bqQAZCj2C-ECfoDd7BLj-136" value="" style="endArrow=none;html=1;rounded=0;exitX=0;exitY=0.5;exitDx=0;exitDy=0;entryX=1;entryY=1;entryDx=0;entryDy=0;" parent="1" source="bqQAZCj2C-ECfoDd7BLj-10" target="bqQAZCj2C-ECfoDd7BLj-130" edge="1">
          <mxGeometry width="50" height="50" relative="1" as="geometry">
            <mxPoint x="300" y="780" as="sourcePoint" />
            <mxPoint x="275" y="750" as="targetPoint" />
          </mxGeometry>
        </mxCell>
        <mxCell id="bqQAZCj2C-ECfoDd7BLj-137" value="Price" style="ellipse;whiteSpace=wrap;html=1;" parent="1" vertex="1">
          <mxGeometry x="585" y="790" width="70" height="30" as="geometry" />
        </mxCell>
        <mxCell id="bqQAZCj2C-ECfoDd7BLj-138" value="" style="endArrow=none;html=1;rounded=0;exitX=0;exitY=0;exitDx=0;exitDy=0;entryX=1;entryY=1;entryDx=0;entryDy=0;" parent="1" source="bqQAZCj2C-ECfoDd7BLj-137" target="bqQAZCj2C-ECfoDd7BLj-10" edge="1">
          <mxGeometry width="50" height="50" relative="1" as="geometry">
            <mxPoint x="475" y="755" as="sourcePoint" />
            <mxPoint x="440" y="726" as="targetPoint" />
          </mxGeometry>
        </mxCell>
        <mxCell id="bqQAZCj2C-ECfoDd7BLj-139" value="Has" style="rhombus;whiteSpace=wrap;html=1;" parent="1" vertex="1">
          <mxGeometry x="710" y="720" width="80" height="60" as="geometry" />
        </mxCell>
        <mxCell id="bqQAZCj2C-ECfoDd7BLj-141" value="" style="shape=link;html=1;rounded=0;entryX=1;entryY=0.5;entryDx=0;entryDy=0;exitX=0;exitY=0.75;exitDx=0;exitDy=0;width=-4;" parent="1" source="bqQAZCj2C-ECfoDd7BLj-9" target="bqQAZCj2C-ECfoDd7BLj-139" edge="1">
          <mxGeometry relative="1" as="geometry">
            <mxPoint x="970" y="530" as="sourcePoint" />
            <mxPoint x="840" y="530" as="targetPoint" />
          </mxGeometry>
        </mxCell>
        <mxCell id="bqQAZCj2C-ECfoDd7BLj-142" value="1" style="resizable=0;html=1;whiteSpace=wrap;align=right;verticalAlign=bottom;" parent="bqQAZCj2C-ECfoDd7BLj-141" connectable="0" vertex="1">
          <mxGeometry x="1" relative="1" as="geometry">
            <mxPoint x="20" as="offset" />
          </mxGeometry>
        </mxCell>
        <mxCell id="bqQAZCj2C-ECfoDd7BLj-143" value="" style="shape=link;html=1;rounded=0;entryX=0;entryY=0.5;entryDx=0;entryDy=0;exitX=1;exitY=0.5;exitDx=0;exitDy=0;width=-4;" parent="1" source="bqQAZCj2C-ECfoDd7BLj-10" target="bqQAZCj2C-ECfoDd7BLj-139" edge="1">
          <mxGeometry relative="1" as="geometry">
            <mxPoint x="970" y="530" as="sourcePoint" />
            <mxPoint x="840" y="530" as="targetPoint" />
          </mxGeometry>
        </mxCell>
        <mxCell id="bqQAZCj2C-ECfoDd7BLj-144" value="1" style="resizable=0;html=1;whiteSpace=wrap;align=right;verticalAlign=bottom;" parent="bqQAZCj2C-ECfoDd7BLj-143" connectable="0" vertex="1">
          <mxGeometry x="1" relative="1" as="geometry">
            <mxPoint as="offset" />
          </mxGeometry>
        </mxCell>
        <mxCell id="bqQAZCj2C-ECfoDd7BLj-145" style="edgeStyle=orthogonalEdgeStyle;rounded=0;orthogonalLoop=1;jettySize=auto;html=1;exitX=0.5;exitY=1;exitDx=0;exitDy=0;" parent="1" source="bqQAZCj2C-ECfoDd7BLj-130" target="bqQAZCj2C-ECfoDd7BLj-130" edge="1">
          <mxGeometry relative="1" as="geometry" />
        </mxCell>
        <mxCell id="bqQAZCj2C-ECfoDd7BLj-146" value="&lt;u&gt;review_id&lt;/u&gt;" style="ellipse;whiteSpace=wrap;html=1;" parent="1" vertex="1">
          <mxGeometry x="10" y="520" width="70" height="30" as="geometry" />
        </mxCell>
        <mxCell id="bqQAZCj2C-ECfoDd7BLj-147" value="" style="endArrow=none;html=1;rounded=0;exitX=0.64;exitY=1.04;exitDx=0;exitDy=0;entryX=0;entryY=0;entryDx=0;entryDy=0;exitPerimeter=0;" parent="1" source="bqQAZCj2C-ECfoDd7BLj-146" target="bqQAZCj2C-ECfoDd7BLj-12" edge="1">
          <mxGeometry width="50" height="50" relative="1" as="geometry">
            <mxPoint x="175" y="750" as="sourcePoint" />
            <mxPoint x="120" y="774" as="targetPoint" />
          </mxGeometry>
        </mxCell>
        <mxCell id="bqQAZCj2C-ECfoDd7BLj-148" value="Rating" style="ellipse;whiteSpace=wrap;html=1;" parent="1" vertex="1">
          <mxGeometry x="170" y="490" width="70" height="30" as="geometry" />
        </mxCell>
        <mxCell id="bqQAZCj2C-ECfoDd7BLj-149" value="Text" style="ellipse;whiteSpace=wrap;html=1;" parent="1" vertex="1">
          <mxGeometry x="20" y="650" width="70" height="30" as="geometry" />
        </mxCell>
        <mxCell id="bqQAZCj2C-ECfoDd7BLj-150" value="Review_Date" style="ellipse;whiteSpace=wrap;html=1;" parent="1" vertex="1">
          <mxGeometry x="140" y="650" width="80" height="30" as="geometry" />
        </mxCell>
        <mxCell id="bqQAZCj2C-ECfoDd7BLj-152" value="" style="endArrow=none;html=1;rounded=0;exitX=0.297;exitY=1.027;exitDx=0;exitDy=0;entryX=1;entryY=0;entryDx=0;entryDy=0;exitPerimeter=0;" parent="1" source="bqQAZCj2C-ECfoDd7BLj-148" target="bqQAZCj2C-ECfoDd7BLj-12" edge="1">
          <mxGeometry width="50" height="50" relative="1" as="geometry">
            <mxPoint x="65" y="561" as="sourcePoint" />
            <mxPoint x="70" y="580" as="targetPoint" />
          </mxGeometry>
        </mxCell>
        <mxCell id="bqQAZCj2C-ECfoDd7BLj-153" value="" style="endArrow=none;html=1;rounded=0;entryX=0.68;entryY=0.04;entryDx=0;entryDy=0;entryPerimeter=0;" parent="1" target="bqQAZCj2C-ECfoDd7BLj-149" edge="1">
          <mxGeometry width="50" height="50" relative="1" as="geometry">
            <mxPoint x="70" y="610" as="sourcePoint" />
            <mxPoint x="80" y="590" as="targetPoint" />
          </mxGeometry>
        </mxCell>
        <mxCell id="bqQAZCj2C-ECfoDd7BLj-154" value="" style="endArrow=none;html=1;rounded=0;exitX=0.676;exitY=1.03;exitDx=0;exitDy=0;entryX=0;entryY=0;entryDx=0;entryDy=0;exitPerimeter=0;" parent="1" source="bqQAZCj2C-ECfoDd7BLj-12" target="bqQAZCj2C-ECfoDd7BLj-150" edge="1">
          <mxGeometry width="50" height="50" relative="1" as="geometry">
            <mxPoint x="85" y="581" as="sourcePoint" />
            <mxPoint x="90" y="600" as="targetPoint" />
          </mxGeometry>
        </mxCell>
        <mxCell id="bqQAZCj2C-ECfoDd7BLj-157" value="" style="shape=link;html=1;rounded=0;exitX=1;exitY=0.5;exitDx=0;exitDy=0;entryX=0.092;entryY=0.66;entryDx=0;entryDy=0;entryPerimeter=0;" parent="1" source="bqQAZCj2C-ECfoDd7BLj-12" target="bqQAZCj2C-ECfoDd7BLj-23" edge="1">
          <mxGeometry relative="1" as="geometry">
            <mxPoint x="250" y="710" as="sourcePoint" />
            <mxPoint x="310" y="655" as="targetPoint" />
          </mxGeometry>
        </mxCell>
        <mxCell id="bqQAZCj2C-ECfoDd7BLj-158" value="N" style="resizable=0;html=1;whiteSpace=wrap;align=right;verticalAlign=bottom;" parent="bqQAZCj2C-ECfoDd7BLj-157" connectable="0" vertex="1">
          <mxGeometry x="1" relative="1" as="geometry">
            <mxPoint x="-18" as="offset" />
          </mxGeometry>
        </mxCell>
        <mxCell id="bqQAZCj2C-ECfoDd7BLj-160" value="" style="endArrow=none;html=1;rounded=0;exitX=0.5;exitY=1;exitDx=0;exitDy=0;entryX=0.5;entryY=0;entryDx=0;entryDy=0;" parent="1" source="bqQAZCj2C-ECfoDd7BLj-1" target="bqQAZCj2C-ECfoDd7BLj-24" edge="1">
          <mxGeometry relative="1" as="geometry">
            <mxPoint x="600" y="269.5" as="sourcePoint" />
            <mxPoint x="760" y="269.5" as="targetPoint" />
          </mxGeometry>
        </mxCell>
        <mxCell id="bqQAZCj2C-ECfoDd7BLj-161" value="1" style="resizable=0;html=1;whiteSpace=wrap;align=right;verticalAlign=bottom;direction=south;" parent="bqQAZCj2C-ECfoDd7BLj-160" connectable="0" vertex="1">
          <mxGeometry x="1" relative="1" as="geometry">
            <mxPoint x="15" as="offset" />
          </mxGeometry>
        </mxCell>
        <mxCell id="bqQAZCj2C-ECfoDd7BLj-162" value="" style="endArrow=none;html=1;rounded=0;exitX=1;exitY=0.5;exitDx=0;exitDy=0;entryX=0;entryY=0.5;entryDx=0;entryDy=0;" parent="1" source="bqQAZCj2C-ECfoDd7BLj-1" target="bqQAZCj2C-ECfoDd7BLj-15" edge="1">
          <mxGeometry relative="1" as="geometry">
            <mxPoint x="400" y="260" as="sourcePoint" />
            <mxPoint x="560" y="260" as="targetPoint" />
          </mxGeometry>
        </mxCell>
        <mxCell id="bqQAZCj2C-ECfoDd7BLj-163" value="1" style="resizable=0;html=1;whiteSpace=wrap;align=right;verticalAlign=bottom;" parent="bqQAZCj2C-ECfoDd7BLj-162" connectable="0" vertex="1">
          <mxGeometry x="1" relative="1" as="geometry" />
        </mxCell>
        <mxCell id="bqQAZCj2C-ECfoDd7BLj-165" value="" style="endArrow=none;html=1;rounded=0;exitX=0;exitY=0.5;exitDx=0;exitDy=0;entryX=1;entryY=0.5;entryDx=0;entryDy=0;" parent="1" source="bqQAZCj2C-ECfoDd7BLj-4" target="bqQAZCj2C-ECfoDd7BLj-23" edge="1">
          <mxGeometry relative="1" as="geometry">
            <mxPoint x="160" y="300" as="sourcePoint" />
            <mxPoint x="160" y="380" as="targetPoint" />
          </mxGeometry>
        </mxCell>
        <mxCell id="bqQAZCj2C-ECfoDd7BLj-166" value="1" style="resizable=0;html=1;whiteSpace=wrap;align=right;verticalAlign=bottom;direction=south;" parent="bqQAZCj2C-ECfoDd7BLj-165" connectable="0" vertex="1">
          <mxGeometry x="1" relative="1" as="geometry">
            <mxPoint x="15" as="offset" />
          </mxGeometry>
        </mxCell>
        <mxCell id="bqQAZCj2C-ECfoDd7BLj-168" value="" style="endArrow=none;html=1;rounded=0;exitX=0.5;exitY=1;exitDx=0;exitDy=0;entryX=0.5;entryY=0;entryDx=0;entryDy=0;" parent="1" source="bqQAZCj2C-ECfoDd7BLj-5" target="bqQAZCj2C-ECfoDd7BLj-17" edge="1">
          <mxGeometry relative="1" as="geometry">
            <mxPoint x="210" y="280" as="sourcePoint" />
            <mxPoint x="310" y="280" as="targetPoint" />
          </mxGeometry>
        </mxCell>
        <mxCell id="bqQAZCj2C-ECfoDd7BLj-169" value="1" style="resizable=0;html=1;whiteSpace=wrap;align=right;verticalAlign=bottom;" parent="bqQAZCj2C-ECfoDd7BLj-168" connectable="0" vertex="1">
          <mxGeometry x="1" relative="1" as="geometry">
            <mxPoint x="20" y="1" as="offset" />
          </mxGeometry>
        </mxCell>
        <mxCell id="bqQAZCj2C-ECfoDd7BLj-170" value="" style="endArrow=none;html=1;rounded=0;entryX=0.5;entryY=1;entryDx=0;entryDy=0;exitX=0.5;exitY=0;exitDx=0;exitDy=0;" parent="1" source="bqQAZCj2C-ECfoDd7BLj-4" target="bqQAZCj2C-ECfoDd7BLj-17" edge="1">
          <mxGeometry relative="1" as="geometry">
            <mxPoint x="510" y="490" as="sourcePoint" />
            <mxPoint x="320" y="290" as="targetPoint" />
          </mxGeometry>
        </mxCell>
        <mxCell id="bqQAZCj2C-ECfoDd7BLj-171" value="N" style="resizable=0;html=1;whiteSpace=wrap;align=right;verticalAlign=bottom;" parent="bqQAZCj2C-ECfoDd7BLj-170" connectable="0" vertex="1">
          <mxGeometry x="1" relative="1" as="geometry">
            <mxPoint x="20" y="15" as="offset" />
          </mxGeometry>
        </mxCell>
        <mxCell id="bqQAZCj2C-ECfoDd7BLj-91" value="Assigned" style="rhombus;whiteSpace=wrap;html=1;perimeterSpacing=1;" parent="1" vertex="1">
          <mxGeometry x="288.75" y="605" width="62.5" height="50" as="geometry" />
        </mxCell>
        <mxCell id="cU3A9E1ynXtvAugK-pkG-1" value="" style="endArrow=none;html=1;rounded=0;exitX=0.5;exitY=0;exitDx=0;exitDy=0;" parent="1" source="bqQAZCj2C-ECfoDd7BLj-1" target="cU3A9E1ynXtvAugK-pkG-2" edge="1">
          <mxGeometry width="50" height="50" relative="1" as="geometry">
            <mxPoint x="330" y="200" as="sourcePoint" />
            <mxPoint x="150" y="160" as="targetPoint" />
          </mxGeometry>
        </mxCell>
        <mxCell id="cU3A9E1ynXtvAugK-pkG-2" value="api_key" style="ellipse;whiteSpace=wrap;html=1;" parent="1" vertex="1">
          <mxGeometry x="120" y="160" width="60" height="30" as="geometry" />
        </mxCell>
        <mxCell id="cU3A9E1ynXtvAugK-pkG-3" value="" style="endArrow=none;html=1;rounded=0;exitX=0.701;exitY=0.981;exitDx=0;exitDy=0;exitPerimeter=0;" parent="1" source="bqQAZCj2C-ECfoDd7BLj-1" target="cU3A9E1ynXtvAugK-pkG-4" edge="1">
          <mxGeometry width="50" height="50" relative="1" as="geometry">
            <mxPoint x="320" y="300" as="sourcePoint" />
            <mxPoint x="180" y="330" as="targetPoint" />
          </mxGeometry>
        </mxCell>
        <mxCell id="cU3A9E1ynXtvAugK-pkG-4" value="email" style="ellipse;whiteSpace=wrap;html=1;" parent="1" vertex="1">
          <mxGeometry x="180" y="330" width="60" height="30" as="geometry" />
        </mxCell>
        <mxCell id="cU3A9E1ynXtvAugK-pkG-11" value="url_2" style="ellipse;whiteSpace=wrap;html=1;" parent="1" vertex="1">
          <mxGeometry x="164.75" y="770" width="70" height="30" as="geometry" />
        </mxCell>
        <mxCell id="cU3A9E1ynXtvAugK-pkG-12" value="" style="endArrow=none;html=1;rounded=0;entryX=0.299;entryY=0.984;entryDx=0;entryDy=0;entryPerimeter=0;exitX=0.413;exitY=0.054;exitDx=0;exitDy=0;exitPerimeter=0;" parent="1" source="cU3A9E1ynXtvAugK-pkG-11" target="bqQAZCj2C-ECfoDd7BLj-6" edge="1">
          <mxGeometry width="50" height="50" relative="1" as="geometry">
            <mxPoint x="380" y="780" as="sourcePoint" />
            <mxPoint x="430" y="730" as="targetPoint" />
          </mxGeometry>
        </mxCell>
        <mxCell id="cU3A9E1ynXtvAugK-pkG-14" value="url_3" style="ellipse;whiteSpace=wrap;html=1;" parent="1" vertex="1">
          <mxGeometry x="305" y="720" width="70" height="30" as="geometry" />
        </mxCell>
        <mxCell id="cU3A9E1ynXtvAugK-pkG-15" value="" style="endArrow=none;html=1;rounded=0;entryX=1;entryY=0.5;entryDx=0;entryDy=0;exitX=0.008;exitY=0.409;exitDx=0;exitDy=0;exitPerimeter=0;" parent="1" source="cU3A9E1ynXtvAugK-pkG-14" target="bqQAZCj2C-ECfoDd7BLj-6" edge="1">
          <mxGeometry width="50" height="50" relative="1" as="geometry">
            <mxPoint x="380" y="780" as="sourcePoint" />
            <mxPoint x="430" y="730" as="targetPoint" />
          </mxGeometry>
        </mxCell>
        <mxCell id="EbKE6f9LZ9E3PGLB61Sv-1" value="Availability" style="ellipse;whiteSpace=wrap;html=1;dashed=1;" parent="1" vertex="1">
          <mxGeometry x="380" y="790" width="70" height="30" as="geometry" />
        </mxCell>
        <mxCell id="EbKE6f9LZ9E3PGLB61Sv-2" value="" style="endArrow=none;html=1;rounded=0;entryX=0;entryY=1;entryDx=0;entryDy=0;exitX=1;exitY=0;exitDx=0;exitDy=0;" parent="1" source="EbKE6f9LZ9E3PGLB61Sv-1" target="bqQAZCj2C-ECfoDd7BLj-10" edge="1">
          <mxGeometry width="50" height="50" relative="1" as="geometry">
            <mxPoint x="830" y="650" as="sourcePoint" />
            <mxPoint x="880" y="600" as="targetPoint" />
          </mxGeometry>
        </mxCell>
        <mxCell id="aH83fry6TFHXP2QqGGlR-2" value="users_preferences" style="rounded=0;whiteSpace=wrap;html=1;" vertex="1" parent="1">
          <mxGeometry x="430" y="90" width="110" height="40" as="geometry" />
        </mxCell>
        <mxCell id="aH83fry6TFHXP2QqGGlR-5" value="price_range" style="ellipse;whiteSpace=wrap;html=1;" vertex="1" parent="1">
          <mxGeometry x="525" y="10" width="90" height="40" as="geometry" />
        </mxCell>
        <mxCell id="aH83fry6TFHXP2QqGGlR-6" value="count" style="ellipse;whiteSpace=wrap;html=1;" vertex="1" parent="1">
          <mxGeometry x="360" y="10" width="90" height="40" as="geometry" />
        </mxCell>
        <mxCell id="aH83fry6TFHXP2QqGGlR-7" value="" style="endArrow=none;html=1;rounded=0;" edge="1" parent="1">
          <mxGeometry width="50" height="50" relative="1" as="geometry">
            <mxPoint x="494" y="90" as="sourcePoint" />
            <mxPoint x="565" y="50" as="targetPoint" />
          </mxGeometry>
        </mxCell>
        <mxCell id="aH83fry6TFHXP2QqGGlR-8" value="" style="endArrow=none;html=1;rounded=0;entryX=0.5;entryY=1;entryDx=0;entryDy=0;exitX=0.442;exitY=-0.017;exitDx=0;exitDy=0;exitPerimeter=0;" edge="1" parent="1">
          <mxGeometry width="50" height="50" relative="1" as="geometry">
            <mxPoint x="466.8100000000001" y="89.31999999999994" as="sourcePoint" />
            <mxPoint x="403.19" y="50" as="targetPoint" />
          </mxGeometry>
        </mxCell>
        <mxCell id="aH83fry6TFHXP2QqGGlR-9" value="has" style="rhombus;whiteSpace=wrap;html=1;" vertex="1" parent="1">
          <mxGeometry x="340" y="180" width="80" height="50" as="geometry" />
        </mxCell>
        <mxCell id="aH83fry6TFHXP2QqGGlR-10" value="" style="endArrow=none;html=1;rounded=0;exitX=1;exitY=0.5;exitDx=0;exitDy=0;" edge="1" parent="1" source="aH83fry6TFHXP2QqGGlR-9">
          <mxGeometry width="50" height="50" relative="1" as="geometry">
            <mxPoint x="440" y="210" as="sourcePoint" />
            <mxPoint x="500" y="130" as="targetPoint" />
            <Array as="points">
              <mxPoint x="500" y="205" />
            </Array>
          </mxGeometry>
        </mxCell>
        <mxCell id="aH83fry6TFHXP2QqGGlR-12" value="" style="endArrow=none;html=1;rounded=0;entryX=0;entryY=0.5;entryDx=0;entryDy=0;exitX=1;exitY=0.25;exitDx=0;exitDy=0;" edge="1" parent="1" source="bqQAZCj2C-ECfoDd7BLj-1" target="aH83fry6TFHXP2QqGGlR-9">
          <mxGeometry width="50" height="50" relative="1" as="geometry">
            <mxPoint x="680" y="330" as="sourcePoint" />
            <mxPoint x="730" y="280" as="targetPoint" />
            <Array as="points">
              <mxPoint x="280" y="260" />
              <mxPoint x="280" y="205" />
            </Array>
          </mxGeometry>
        </mxCell>
        <mxCell id="aH83fry6TFHXP2QqGGlR-13" value="has" style="rhombus;whiteSpace=wrap;html=1;" vertex="1" parent="1">
          <mxGeometry x="940" y="85" width="70" height="50" as="geometry" />
        </mxCell>
        <mxCell id="aH83fry6TFHXP2QqGGlR-14" value="" style="endArrow=none;html=1;rounded=0;exitX=1;exitY=0.5;exitDx=0;exitDy=0;entryX=0;entryY=0.5;entryDx=0;entryDy=0;" edge="1" parent="1" source="aH83fry6TFHXP2QqGGlR-2" target="aH83fry6TFHXP2QqGGlR-13">
          <mxGeometry width="50" height="50" relative="1" as="geometry">
            <mxPoint x="570" y="370" as="sourcePoint" />
            <mxPoint x="880" y="110" as="targetPoint" />
          </mxGeometry>
        </mxCell>
        <mxCell id="aH83fry6TFHXP2QqGGlR-15" value="" style="endArrow=none;html=1;rounded=0;entryX=0.5;entryY=1;entryDx=0;entryDy=0;" edge="1" parent="1" target="aH83fry6TFHXP2QqGGlR-13">
          <mxGeometry width="50" height="50" relative="1" as="geometry">
            <mxPoint x="977.5" y="500" as="sourcePoint" />
            <mxPoint x="972.5" y="150" as="targetPoint" />
          </mxGeometry>
        </mxCell>
      </root>
    </mxGraphModel>
  </diagram>
</mxfile>
